<?xml version='1.0' encoding='iso-8859-1'?>
<!-- Uploaded to: SVG Repo, www.svgrepo.com, Generator: SVG Repo Mixer Tools -->
<svg fill="#000000" height="800px" width="800px" version="1.1" xmlns="http://www.w3.org/2000/svg" viewBox="0 0 297 297" xmlns:xlink="http://www.w3.org/1999/xlink" enable-background="new 0 0 297 297">
  <g>
    <path d="m238.328,101.71c-1.891-1.092-4.994-1.784-8.612-2.211 3.618-0.426 6.722-1.118 8.612-2.21 7.891-4.556 10.596-14.647 6.039-22.539-4.556-7.892-14.648-10.596-22.539-6.039-1.891,1.092-4.042,3.434-6.221,6.354 1.44-3.347 2.393-6.382 2.393-8.564 0-9.112-7.388-16.5-16.5-16.5-4.725,0-8.974,1.996-11.981,5.179-1.169-1.343-2.563-2.528-4.19-3.469-1.89-1.091-4.991-1.784-8.608-2.21 3.617-0.427 6.719-1.119 8.608-2.21 7.891-4.556 10.596-14.649 6.039-22.54-4.555-7.892-14.648-10.595-22.539-6.039-1.891,1.092-4.042,3.434-6.222,6.356 1.44-3.349 2.393-6.384 2.393-8.568 0-9.112-7.388-16.5-16.5-16.5-9.112,0-16.5,7.388-16.5,16.5 0,2.183 0.952,5.217 2.393,8.565-2.179-2.92-4.33-5.262-6.221-6.354-7.891-4.557-17.983-1.852-22.539,6.039-4.557,7.892-1.852,17.983 6.039,22.539 1.891,1.092 4.994,1.784 8.612,2.21-3.618,0.427-6.722,1.119-8.612,2.211-1.628,0.94-3.021,2.126-4.19,3.469-3.008-3.183-7.257-5.179-11.982-5.179-9.112,0-16.5,7.388-16.5,16.5 0,2.183 0.952,5.217 2.393,8.564-2.179-2.92-4.33-5.262-6.221-6.354-7.891-4.557-17.983-1.853-22.539,6.039-4.557,7.892-1.851,17.983 6.039,22.539 1.891,1.092 4.994,1.784 8.612,2.21-3.618,0.427-6.722,1.119-8.612,2.211-7.891,4.556-10.595,14.647-6.039,22.539 4.557,7.892 14.648,10.595 22.539,6.04 1.891-1.092 4.041-3.433 6.22-6.353-1.44,3.347-2.392,6.38-2.392,8.562 0,9.111 7.389,16.499 16.5,16.499 3.682,0 7.069-1.221 9.814-3.259l29.354,59.184-42.281,42.179 16.779,.258v17.142l28.274-28.172-5.94,60.672h34l-6.274-60.672 27.941,28.172v-17.141l17.112-.258-42.063-42.179 29.412-59.184c2.746,2.038 6.162,3.259 9.844,3.259 9.111,0 16.514-7.388 16.514-16.499 0-2.183-0.945-5.216-2.385-8.562 2.179,2.92 4.333,5.261 6.223,6.353 7.891,4.555 17.984,1.852 22.54-6.04 4.558-7.892 1.855-17.983-6.036-22.539zm-106.328-52.21c0-9.112 7.388-16.5 16.5-16.5 9.112,0 16.5,7.388 16.5,16.5s-7.388,16.5-16.5,16.5c-9.112,0-16.5-7.388-16.5-16.5zm-53,50c0-9.112 7.388-16.5 16.5-16.5 9.112,0 16.5,7.388 16.5,16.5s-7.388,16.5-16.5,16.5c-9.112,0-16.5-7.388-16.5-16.5zm122.5,16.5c-9.112,0-16.5-7.388-16.5-16.5s7.388-16.5 16.5-16.5c9.112,0 16.5,7.388 16.5,16.5s-7.388,16.5-16.5,16.5z"/>
  </g>
</svg>